<?xml version="1.0" standalone="no"?>
<!DOCTYPE svg PUBLIC "-//W3C//DTD SVG 20010904//EN"
 "http://www.w3.org/TR/2001/REC-SVG-20010904/DTD/svg10.dtd">
<svg version="1.0" xmlns="http://www.w3.org/2000/svg"
 width="512.000000pt" height="512.000000pt" viewBox="0 0 512.000000 512.000000"
 preserveAspectRatio="xMidYMid meet">
<metadata>
Created by potrace 1.11, written by Peter Selinger 2001-2013
</metadata>
<g transform="translate(0.000000,512.000000) scale(0.100000,-0.100000)"
fill="#000000" stroke="none">
<path d="M760 3140 l0 -1880 1190 0 1190 0 -2 223 -3 222 -937 3 -938 2 0
1655 0 1655 -250 0 -250 0 0 -1880z"/>
<path d="M3060 3710 l0 -200 395 0 396 0 -4 -1252 c-3 -1148 -5 -1259 -20
-1328 -39 -164 -113 -265 -240 -326 -97 -46 -184 -63 -352 -70 -167 -7 -277 7
-470 62 -71 20 -142 39 -157 41 l-28 5 0 -235 0 -236 53 -10 c301 -60 669 -77
879 -42 445 77 725 331 821 746 21 89 21 111 24 1568 l4 1477 -651 0 -650 0 0
-200z"/>
</g>
</svg>
