<svg version="1" xmlns="http://www.w3.org/2000/svg" width="1825.333" height="1825.333" viewBox="0 0 1369.000000 1369.000000"><path d="M184 523v523h662l-.2-61.8-.3-61.7-261.2-.3L323 922V0H184v523z"/><path d="M824 363.5V419h221v316.7c0 194.4-.4 324.1-1 335.8-1.2 23-3.5 46-6.1 61.5-7.8 46.3-28.1 76.6-63.5 94.7-25.2 12.9-53.7 19.2-96.7 21.3-41.9 2.1-77.3-1.7-120.2-13-17.8-4.7-43.6-12.1-51.9-15-3.3-1.1-7.9-2-10.3-2H691v129.7l3.3.6c1.7.3 9.3 1.7 16.7 3.1 26.1 4.9 67.1 9.9 114.5 14.1 99.7 8.7 182.2-7.8 244.2-49.1 69.5-46.2 106.7-114.3 113.3-207.4.6-9.5 1-150.5 1-408.3V308H824v55.5z"/></svg>