<?xml version="1.0" standalone="no"?>
<!DOCTYPE svg PUBLIC "-//W3C//DTD SVG 20010904//EN"
 "http://www.w3.org/TR/2001/REC-SVG-20010904/DTD/svg10.dtd">
<svg version="1.0" xmlns="http://www.w3.org/2000/svg"
 width="512.000000pt" height="512.000000pt" viewBox="0 0 512.000000 512.000000"
 preserveAspectRatio="xMidYMid meet">
<metadata>
Created by potrace 1.11, written by Peter Selinger 2001-2013
</metadata>
<g transform="translate(0.000000,512.000000) scale(0.100000,-0.100000)"
fill="#000000" stroke="none">
<path d="M854 5105 c-158 -28 -269 -73 -398 -159 -212 -141 -364 -358 -429
-613 l-22 -88 0 -1685 0 -1685 22 -88 c32 -124 75 -221 143 -324 143 -217 360
-370 617 -436 l88 -22 1685 0 1685 0 88 22 c258 66 473 218 618 436 67 103
110 200 142 324 l22 88 0 1685 0 1685 -22 88 c-32 124 -75 221 -143 324 -140
213 -347 362 -599 431 l-96 27 -1665 2 c-1323 1 -1679 -1 -1736 -12z m816
-1940 l0 -1155 653 -2 652 -3 0 -155 0 -155 -825 0 -825 0 -3 1313 -2 1312
175 0 175 0 0 -1155z m2128 -752 l-4 -1048 -22 -75 c-52 -169 -149 -296 -288
-378 -144 -85 -305 -119 -524 -109 -122 5 -338 30 -382 43 -16 5 -18 22 -18
171 0 149 2 165 17 159 9 -4 68 -21 132 -39 107 -29 128 -32 271 -32 175 0
242 14 320 66 85 57 122 135 140 287 6 51 10 424 10 904 l0 818 -277 2 -278 3
-3 124 c-1 69 0 131 2 138 4 10 95 13 456 13 l451 0 -3 -1047z"/>
</g>
</svg>
